<svg width="340" height="100" viewBox="0 0 331 122" fill="none" xmlns="http://www.w3.org/2000/svg">
<path d="M19.1444 116.367C19.1733 116.308 19.2136 116.234 19.2654 116.144C19.3201 116.048 19.3576 115.979 19.3778 115.938C19.5795 115.53 19.6692 115.208 19.6469 114.974C19.6274 114.734 19.4833 114.49 19.2145 114.241C19.0686 114.11 18.7009 113.878 18.1112 113.544C17.5244 113.204 16.5211 112.649 15.1013 111.881L10.7215 109.51C10.6264 109.687 10.5328 109.87 10.4405 110.057C10.3455 110.234 10.236 110.449 10.1121 110.7C9.60197 111.733 9.39789 112.492 9.49982 112.976C9.60176 113.461 10.0103 113.985 10.7255 114.55L9.85409 115.632C9.3822 115.206 8.8716 114.785 8.32229 114.37C7.77586 113.948 7.18785 113.53 6.55827 113.115C7.09676 112.186 7.60653 111.278 8.08758 110.392C8.5629 109.502 9.02534 108.602 9.47492 107.692C10.4865 105.643 11.2733 104.012 11.8355 102.8C12.3919 101.584 12.7669 100.7 12.9604 100.146C13.573 100.478 14.1943 100.785 14.8242 101.066C15.4541 101.348 16.0841 101.601 16.7142 101.823L16.3368 103.095C15.4775 102.822 14.8413 102.766 14.428 102.927C14.0177 103.082 13.5921 103.606 13.1511 104.5C13.0791 104.646 12.9926 104.836 12.8917 105.069C12.7879 105.294 12.6668 105.569 12.5283 105.894C13.7191 106.553 14.648 107.067 15.315 107.436C15.9819 107.804 16.6046 108.145 17.1828 108.458L18.2391 109.03C19.2525 109.578 19.9682 109.951 20.3862 110.148C20.8042 110.344 21.1049 110.455 21.2883 110.481C21.5548 110.514 21.7828 110.464 21.9724 110.33C22.1591 110.187 22.3418 109.934 22.5205 109.572C22.5406 109.531 22.568 109.468 22.6027 109.384C22.6402 109.293 22.6719 109.221 22.6978 109.169L23.7498 109.749C23.3236 110.48 22.9435 111.155 22.6093 111.773C22.2723 112.382 21.9857 112.926 21.7494 113.405C21.5736 113.761 21.3588 114.233 21.105 114.82C20.8455 115.405 20.5455 116.108 20.2051 116.93L19.1444 116.367Z" fill="#FEBE44"/>
<path d="M18.9622 87.7715C19.939 88.5359 20.8602 89.2485 21.726 89.9092C22.59 90.5608 23.4012 91.1624 24.1596 91.7142C24.1244 90.8646 24.1675 90.1271 24.2888 89.5018C24.4084 88.8672 24.6107 88.3319 24.8957 87.896C25.4871 86.9914 26.1969 86.5 27.0253 86.4216C27.8484 86.3395 28.7784 86.6702 29.8154 87.4137C30.0271 87.5655 30.4723 87.9007 31.1512 88.4195C31.8247 88.9344 32.3996 89.3626 32.8758 89.7041C33.3097 90.0151 33.6496 90.1548 33.8957 90.1232C34.1365 90.0877 34.3869 89.8711 34.647 89.4733L34.7432 89.3262L35.6082 89.9464C35.0298 90.7242 34.6195 91.2864 34.3773 91.633C34.1299 91.9758 33.9313 92.2617 33.7817 92.4905C33.5751 92.8066 33.1089 93.5969 32.3832 94.8613L32.3377 94.9488L31.4727 94.3285L31.5261 94.2468C31.7755 93.8653 31.8353 93.5361 31.7056 93.259C31.5742 92.9727 30.9873 92.4558 29.945 91.7085L29.08 91.0882C28.1011 90.3864 27.3844 90.0206 26.9299 89.9908C26.4789 89.9556 26.0948 90.1804 25.7778 90.6654C25.6602 90.8452 25.5592 91.077 25.4748 91.3606C25.3939 91.6388 25.3234 91.9964 25.263 92.4333L25.8131 92.8757C26.0441 93.0573 26.3509 93.2893 26.7336 93.5717C27.1162 93.8541 27.5351 94.1584 27.9901 94.4847L28.9425 95.1675C29.5245 95.5848 29.9358 95.7877 30.1765 95.7762C30.4207 95.7592 30.6622 95.5682 30.9009 95.2031L30.9383 95.1459L31.798 95.7743C31.4368 96.2436 31.1057 96.6906 30.8048 97.1151C30.4986 97.5359 30.2315 97.9206 30.0035 98.2694C29.7969 98.5854 29.5652 98.9635 29.3085 99.4037C29.0465 99.8402 28.7683 100.325 28.4741 100.858L27.609 100.238L27.7052 100.091C27.8655 99.8458 27.9638 99.6241 28.0001 99.426C28.0346 99.2187 28.0062 99.0303 27.915 98.8608C27.7201 98.5289 26.3087 97.413 23.681 95.5128C23.2841 95.2283 22.9843 95.0094 22.7816 94.856L20.7605 93.3829L20.451 93.1609C19.615 92.5615 19.0573 92.2497 18.7779 92.2254C18.4985 92.2012 18.2465 92.3607 18.0221 92.704C17.9829 92.7639 17.9428 92.8312 17.9018 92.9058C17.859 92.9712 17.8136 93.0467 17.7654 93.1322L16.9083 92.5176C17.3079 91.7637 17.6794 90.9936 18.0225 90.2072C18.364 89.4115 18.6772 88.5996 18.9622 87.7715Z" fill="#FEBE44"/>
<path d="M42.48 73.413L39.6773 76.7979C39.4199 77.1088 39.1842 77.4087 38.9703 77.6976C38.7564 77.9865 38.5684 78.2595 38.4064 78.5164C39.1158 79.0464 39.8015 79.2738 40.4634 79.1984C41.1295 79.118 41.749 78.7318 42.322 78.0398C42.5753 77.7339 42.807 77.347 43.0172 76.879C43.2226 76.4066 43.4113 75.8269 43.5834 75.1398L44.8421 75.5316C44.7627 76.6982 44.573 77.7075 44.2729 78.5595C43.9769 79.4064 43.5507 80.1658 42.9943 80.8378C42.0227 82.0112 40.8913 82.6485 39.6 82.7497C38.3129 82.8459 37.1151 82.3907 36.0065 81.3841C34.8353 80.3206 34.1984 79.035 34.0957 77.5274C33.9972 76.0148 34.4524 74.6492 35.4614 73.4306C36.3914 72.3074 37.4734 71.7349 38.7072 71.7133C39.9452 71.6866 41.1618 72.216 42.3571 73.3014L42.48 73.413ZM39.2949 74.8429C38.7315 74.4016 38.2073 74.1628 37.7223 74.1265C37.2373 74.0902 36.8453 74.2525 36.5464 74.6136C36.2308 74.9947 36.1369 75.4497 36.2647 75.9786C36.3918 76.4981 36.7283 77.0146 37.2743 77.5279C37.785 76.9111 38.201 76.3884 38.5222 75.9597C38.8475 75.526 39.1051 75.1537 39.2949 74.8429Z" fill="#FEBE44"/>
<path d="M63.5502 53.4779L61.8716 47.3368L60.6067 46.4183C60.2446 46.1564 59.952 46.0259 59.729 46.0268C59.5023 46.0223 59.2478 46.1303 58.9656 46.3507L58.7809 46.495L58.0728 45.5006C58.5891 45.1717 59.0831 44.8395 59.5549 44.504C60.0318 44.1646 60.4883 43.8246 60.9244 43.4839C61.2066 43.2635 61.5531 42.9764 61.9639 42.6226C62.3746 42.2688 62.9094 41.7975 63.5681 41.2088L64.2762 42.2031L64.0914 42.3474C63.7323 42.6279 63.5084 42.8853 63.4197 43.1196C63.3324 43.3446 63.3662 43.5658 63.521 43.7832C63.5512 43.8257 63.6099 43.8912 63.697 43.98C63.7893 44.0647 63.895 44.1514 64.014 44.24L69.7426 48.5673C68.8023 45.4642 68.1856 43.4825 67.8923 42.6222C67.6042 41.7579 67.3902 41.2277 67.2505 41.0314C67.0617 40.7663 66.8506 40.6381 66.6174 40.647C66.3804 40.6505 66.0848 40.7906 65.7308 41.0671L65.5692 41.1933L64.8667 40.2069C64.9783 40.1281 65.1372 40.0205 65.3435 39.8841C66.2508 39.2745 66.8789 38.8335 67.2278 38.561C67.4793 38.3646 67.9658 37.9434 68.6874 37.2973C68.975 37.0396 69.1978 36.8367 69.3558 36.6886L70.0639 37.6829L69.8253 37.8692C69.6304 38.0215 69.4813 38.171 69.3781 38.3176C69.2762 38.4549 69.2068 38.604 69.1697 38.765C69.1191 39.0191 69.3219 39.9542 69.7781 41.5703C70.0465 42.5078 70.2585 43.2707 70.4139 43.859L71.0452 46.2255C71.5105 47.9665 71.854 49.2167 72.0755 49.9763C72.2983 50.7265 72.5037 51.3625 72.6916 51.8842L70.3288 53.7296C70.1318 53.5203 69.9157 53.3177 69.6804 53.1218C69.4413 52.9207 69.1344 52.6859 68.7596 52.4174L64.4026 49.2594L65.8823 54.7513C65.8971 54.8057 65.9186 54.8921 65.9469 55.0103C66.1393 55.7513 66.3223 56.3222 66.4959 56.723L64.1793 58.5323C63.7516 58.1896 62.6829 57.4233 60.9731 56.2333C60.4525 55.8724 60.0498 55.5928 59.7648 55.3944L57.6713 53.9347C56.0589 52.8255 54.9923 52.107 54.4715 51.7793C53.952 51.4423 53.6046 51.2515 53.4291 51.207C53.2523 51.1717 53.0559 51.1931 52.8399 51.271C52.6239 51.3489 52.3851 51.4901 52.1234 51.6944L52.0157 51.7786L51.3132 50.7922C52.0977 50.2456 52.7027 49.8225 53.1283 49.5232C53.559 49.2198 53.8872 48.9799 54.113 48.8036C54.621 48.4069 55.1214 47.9996 55.6143 47.5816C56.1123 47.1597 56.6059 46.7205 57.0953 46.264L57.8034 47.2583L57.611 47.4086C57.3083 47.645 57.1247 47.875 57.0604 48.0986C56.996 48.3222 57.0469 48.5506 57.2131 48.784C57.2584 48.8476 57.3253 48.9191 57.4138 48.9986C57.4985 49.0727 57.6112 49.158 57.7518 49.2545L63.5502 53.4779Z" fill="#FEBE44"/>
<path d="M83.7722 34.5043C83.2284 34.8125 82.933 35.2753 82.8859 35.8927C82.8358 36.5043 83.0379 37.2497 83.4922 38.1289C84.0989 39.303 84.712 40.107 85.3317 40.541C85.9484 40.9692 86.5598 41.0116 87.1658 40.6682C87.7323 40.3472 88.0375 39.8751 88.0816 39.2519C88.1228 38.6229 87.9028 37.8428 87.4216 36.9116C86.8358 35.778 86.2334 35.0089 85.6144 34.6045C84.998 34.1911 84.3839 34.1577 83.7722 34.5043ZM83.0767 32.9244C84.623 32.0482 86.0947 31.7787 87.4919 32.1161C88.8918 32.4444 89.9489 33.2998 90.6632 34.6821C91.3685 36.0471 91.464 37.4436 90.9497 38.8716C90.4381 40.2907 89.4204 41.4319 87.8968 42.2953C86.3788 43.1555 84.9273 43.4359 83.5424 43.1365C82.1601 42.8281 81.1238 42.0058 80.4334 40.6697C79.7042 39.2585 79.5879 37.8288 80.0846 36.3809C80.5783 34.9272 81.5756 33.775 83.0767 32.9244Z" fill="#FEBE44"/>
<path d="M100.089 24.3789C100.221 24.8184 100.355 25.2567 100.492 25.6936C100.633 26.1219 100.779 26.5549 100.93 26.9928C101.097 25.8362 101.294 25.0212 101.52 24.5478C101.749 24.0658 102.074 23.7345 102.492 23.5537C102.904 23.3756 103.315 23.3894 103.725 23.5951C104.141 23.7983 104.442 24.1361 104.628 24.6086C104.795 25.0326 104.823 25.4243 104.713 25.7838C104.603 26.1433 104.384 26.394 104.055 26.536C103.87 26.6161 103.592 26.6298 103.221 26.5772C102.854 26.5159 102.587 26.5214 102.42 26.5937C102.247 26.6686 102.077 26.8234 101.911 27.0583C101.744 27.2931 101.585 27.6067 101.431 27.9989C101.523 28.2499 101.619 28.5099 101.718 28.779C101.823 29.0455 101.96 29.3938 102.129 29.8239L102.548 30.887C102.899 31.7774 103.218 32.2951 103.506 32.4401C103.8 32.5825 104.243 32.5259 104.834 32.2703C104.942 32.2238 105.029 32.1864 105.094 32.1579C105.158 32.1235 105.216 32.0946 105.27 32.0714L105.664 33.0709C104.892 33.3477 104.202 33.6031 103.595 33.8371C102.994 34.0685 102.451 34.2887 101.967 34.4979C101.686 34.6192 101.29 34.8043 100.78 35.0532C100.27 35.302 99.7131 35.5849 99.1106 35.9019L98.7061 34.8752C98.736 34.8623 98.785 34.8447 98.8532 34.8223C98.9213 34.8 98.9643 34.7849 98.9822 34.7772C99.7891 34.4286 99.825 33.3215 99.0901 31.4558C98.9684 31.1469 98.8772 30.9064 98.8163 30.7342L98.4334 29.7088L98.1614 29.0182C97.9347 28.4428 97.7162 28.1012 97.506 27.9936C97.2993 27.8773 97.0107 27.8992 96.6402 28.0593C96.5684 28.0903 96.489 28.1282 96.4017 28.1729C96.318 28.2091 96.2296 28.2508 96.1363 28.2982L95.7031 27.3583C96.4347 26.943 97.1652 26.4893 97.8944 25.997C98.6273 25.4961 99.3589 24.9568 100.089 24.3789Z" fill="#FEBE44"/>
<path d="M113.639 14.0154C113.885 14.9691 114.16 15.9852 114.464 17.0637C114.768 18.1422 115.137 19.4046 115.572 20.8511L115.985 22.2259C116.484 23.8843 116.842 25.0306 117.059 25.6646C117.277 26.2986 117.449 26.7115 117.575 26.9031C117.668 27.0571 117.815 27.1493 118.014 27.1795C118.22 27.2076 118.468 27.1738 118.759 27.078C118.783 27.0699 118.82 27.0545 118.867 27.032C118.921 27.0074 118.966 26.989 119.003 26.9768L119.323 28.074C118.661 28.2444 118.058 28.4089 117.514 28.5676C116.975 28.7179 116.517 28.8553 116.14 28.9796C115.75 29.1081 115.296 29.2714 114.778 29.4696C114.258 29.6616 113.686 29.8843 113.063 30.138L112.734 29.0437C112.759 29.0356 112.803 29.0244 112.866 29.0103C112.936 28.9941 112.987 28.9809 113.018 28.9707C113.506 28.8097 113.788 28.5489 113.863 28.1883C113.942 27.8195 113.809 27.0584 113.462 25.905L113.012 24.4086L112.886 23.9878L112.311 22.0084L111.31 18.679C111.095 17.962 110.883 17.5178 110.675 17.3465C110.467 17.1751 110.175 17.1516 109.798 17.276C109.761 17.2882 109.712 17.3076 109.652 17.3343C109.598 17.3588 109.511 17.3978 109.391 17.451L109.038 16.478C109.836 16.1051 110.619 15.7134 111.386 15.303C112.159 14.8905 112.91 14.4613 113.639 14.0154Z" fill="#FEBE44"/>
<path d="M131.453 16.8645C131.177 16.7784 130.918 16.7286 130.677 16.7149C130.434 16.6949 130.198 16.71 129.969 16.7602C129.276 16.9122 128.794 17.2776 128.525 17.8564C128.254 18.4289 128.211 19.1748 128.395 20.0941C128.607 21.1538 128.97 21.9572 129.484 22.5041C129.997 23.0447 130.575 23.2446 131.217 23.1037C131.408 23.0619 131.612 22.9705 131.829 22.8295C132.047 22.6886 132.28 22.4909 132.527 22.2367C132.441 21.7692 132.355 21.3248 132.271 20.9035C132.192 20.4744 132.112 20.0619 132.033 19.6661C131.935 19.1745 131.838 18.706 131.742 18.2605C131.653 17.8136 131.557 17.3483 131.453 16.8645ZM133.465 8.8965C133.766 10.6697 134.078 12.4471 134.401 14.2288C134.723 16.0042 135.067 17.808 135.434 19.6402L135.636 20.6553C135.787 21.4086 135.942 21.8844 136.101 22.0828C136.265 22.2733 136.503 22.3344 136.815 22.2661C136.904 22.2466 137.009 22.2069 137.13 22.1471C137.249 22.0809 137.379 21.9992 137.519 21.9019L137.935 22.8401C137.23 23.2947 136.49 23.6967 135.717 24.0462C134.95 24.3943 134.137 24.6926 133.277 24.9411C133.193 24.7529 133.115 24.5435 133.042 24.3129C132.968 24.0759 132.895 23.8088 132.822 23.5115C132.359 24.0861 131.905 24.5356 131.459 24.86C131.013 25.1845 130.548 25.3997 130.064 25.5056C128.85 25.772 127.737 25.5361 126.727 24.7981C125.715 24.0537 125.07 22.9888 124.793 21.6035C124.488 20.0777 124.751 18.7039 125.582 17.4821C126.414 16.2603 127.618 15.4765 129.195 15.1306C129.519 15.0595 129.842 15.0153 130.164 14.9981C130.486 14.9808 130.807 14.9937 131.128 15.0367C131.075 14.7416 131.023 14.4632 130.971 14.2015C130.923 13.9319 130.876 13.6791 130.829 13.4428C130.657 12.581 130.472 12.0551 130.274 11.8651C130.077 11.6751 129.756 11.629 129.311 11.7266C129.19 11.7531 129.098 11.7765 129.036 11.7968C128.972 11.8108 128.909 11.8279 128.847 11.8482L128.633 10.7757C129.459 10.5278 130.273 10.2494 131.074 9.94039C131.881 9.62365 132.677 9.27568 133.465 8.8965Z" fill="#FEBE44"/>
<path d="M156.169 7.24872C156.403 7.25221 156.739 7.2609 157.175 7.2748C158.465 7.31025 159.334 7.32507 159.783 7.31927C160.447 7.3107 161.576 7.26358 163.171 7.1779C163.437 7.16143 163.636 7.15236 163.766 7.15068L163.781 8.38106C163.722 8.37531 163.663 8.37281 163.605 8.37357C163.546 8.36781 163.458 8.36569 163.341 8.3672C162.788 8.37434 162.415 8.52239 162.223 8.81135C162.031 9.10031 161.941 9.72653 161.952 10.69C161.954 10.8528 161.961 11.1554 161.973 11.598C161.984 12.0341 161.992 12.3921 161.995 12.672L162.07 19.0681C162.37 19.0968 162.715 19.1183 163.106 19.1328C163.503 19.1407 163.998 19.1409 164.591 19.1332C165.71 19.1188 166.512 18.9294 166.996 18.565C167.48 18.2007 167.886 17.5215 168.213 16.5277L169.526 16.9111C169.3 17.6303 169.103 18.3327 168.935 19.0185C168.768 19.6978 168.626 20.3671 168.51 21.0262C166.426 20.9814 164.895 20.9556 163.919 20.9487C162.942 20.9352 162.099 20.9331 161.389 20.9423C160.738 20.9507 160.016 20.973 159.222 21.0093C158.428 21.0456 157.384 21.1046 156.089 21.1865L156.075 19.9854L156.456 19.9805C156.911 19.9746 157.239 19.9215 157.44 19.8212C157.647 19.7209 157.798 19.5399 157.893 19.2783C157.962 19.0755 158.006 18.7071 158.026 18.1729C158.052 17.6387 158.055 16.4537 158.033 14.6179L158.018 13.3582C158.015 13.0522 158.013 12.6583 158.014 12.1765C158.015 11.6882 158.014 11.3561 158.012 11.1803C157.999 10.0216 157.895 9.27088 157.703 8.92829C157.516 8.5791 157.163 8.40787 156.642 8.41459C156.518 8.41619 156.424 8.42066 156.359 8.42801C156.3 8.42877 156.242 8.43278 156.183 8.44005L156.169 7.24872Z" fill="#FEBE44"/>
<path d="M186.791 17.7449L182.423 17.264C182.021 17.2199 181.642 17.1879 181.284 17.1681C180.926 17.1484 180.596 17.1416 180.295 17.1477C180.29 18.0379 180.514 18.7404 180.966 19.2552C181.425 19.7707 182.101 20.0776 182.994 20.1759C183.389 20.2194 183.836 20.1998 184.335 20.1172C184.834 20.0281 185.41 19.8656 186.062 19.6295L186.493 20.905C185.512 21.4847 184.592 21.8845 183.733 22.1042C182.88 22.3247 182.019 22.3872 181.152 22.2917C179.638 22.125 178.458 21.5268 177.613 20.4972C176.774 19.4682 176.429 18.2088 176.579 16.7189C176.737 15.1448 177.389 13.8969 178.535 12.9751C179.687 12.0541 181.05 11.6801 182.622 11.8532C184.072 12.0128 185.17 12.6053 185.918 13.6308C186.672 14.6569 186.969 15.9732 186.807 17.5797L186.791 17.7449ZM183.761 15.8592C183.781 15.1409 183.662 14.5678 183.404 14.1399C183.146 13.7119 182.784 13.4723 182.318 13.421C181.826 13.3669 181.406 13.5401 181.058 13.9406C180.718 14.3354 180.504 14.9045 180.416 15.6481C181.212 15.7357 181.876 15.7958 182.41 15.8283C182.949 15.8615 183.4 15.8718 183.761 15.8592Z" fill="#FEBE44"/>
<path d="M204.956 24.1216L205.222 25.1845C204.239 25.4997 203.437 25.7066 202.818 25.805C202.198 25.9098 201.701 25.9192 201.326 25.8333C200.774 25.7067 200.381 25.4863 200.148 25.1723C199.919 24.8661 199.846 24.4686 199.928 23.98C199.062 24.3357 198.362 24.569 197.827 24.6799C197.291 24.7909 196.827 24.8012 196.434 24.711C195.685 24.5392 195.103 24.1086 194.689 23.4192C194.281 22.7312 194.16 21.9889 194.327 21.1924C194.595 19.9115 196.273 19.2781 199.363 19.2923C200.008 19.2933 200.513 19.2924 200.879 19.2896C200.926 19.0999 200.975 18.8974 201.026 18.6822C201.086 18.4621 201.119 18.3329 201.127 18.2947C201.226 17.8231 201.191 17.4511 201.022 17.1786C200.854 16.8997 200.542 16.7078 200.085 16.603C199.628 16.4982 199.249 16.498 198.948 16.6026C198.653 16.7086 198.476 16.9018 198.418 17.1822L198.376 17.3829C198.317 17.6633 198.14 17.843 197.844 17.9221C197.548 18.0011 197.127 17.9781 196.581 17.8529C196.22 17.7699 195.961 17.6404 195.805 17.4644C195.65 17.2819 195.601 17.0537 195.659 16.7797C195.703 16.5694 195.833 16.3589 196.05 16.1483C196.274 15.939 196.571 15.7402 196.943 15.5517C197.604 15.2224 198.343 15.0113 199.16 14.9184C199.979 14.819 200.753 14.8531 201.483 15.0205C202.727 15.3058 203.597 15.8058 204.092 16.5205C204.594 17.2367 204.724 18.1747 204.481 19.3345C204.425 19.6021 204.283 20.1539 204.055 20.9898C203.827 21.8257 203.652 22.5336 203.531 23.1135C203.463 23.4385 203.466 23.6962 203.539 23.8866C203.618 24.0785 203.766 24.1992 203.982 24.2487C204.077 24.2705 204.197 24.2713 204.34 24.2508C204.484 24.2304 204.69 24.1874 204.956 24.1216ZM200.596 20.597C200.447 20.6096 200.228 20.626 199.937 20.6462C198.488 20.7411 197.703 21.0753 197.583 21.6488C197.516 21.9674 197.567 22.2662 197.735 22.5451C197.91 22.8191 198.156 22.9925 198.474 23.0653C198.651 23.106 198.864 23.1048 199.113 23.0616C199.368 23.0199 199.708 22.9209 200.133 22.7646L200.596 20.597Z" fill="#FEBE44"/>
<path d="M220.761 23.2309C220.567 23.0091 220.369 22.8278 220.169 22.6868C219.971 22.5397 219.761 22.4266 219.54 22.3476C218.872 22.1082 218.282 22.1662 217.769 22.5216C217.257 22.8707 216.856 23.4909 216.565 24.382C216.23 25.4093 216.149 26.2963 216.322 27.0429C216.498 27.7833 216.895 28.2644 217.514 28.4862C217.698 28.5521 217.918 28.5823 218.173 28.5769C218.428 28.5715 218.724 28.5254 219.06 28.4386C219.214 27.989 219.357 27.56 219.491 27.1516C219.632 26.7391 219.766 26.3411 219.891 25.9574C220.047 25.4809 220.192 25.0249 220.328 24.5895C220.469 24.1563 220.614 23.7035 220.761 23.2309ZM226.373 17.4333C225.766 19.1238 225.166 20.8238 224.573 22.5332C223.983 24.2364 223.397 25.9761 222.817 27.7522L222.496 28.7362C222.257 29.4664 222.158 29.9596 222.197 30.2158C222.245 30.4679 222.419 30.6478 222.719 30.7554C222.805 30.7861 222.914 30.808 223.047 30.8209C223.182 30.8277 223.333 30.8265 223.5 30.8173L223.399 31.8492C222.573 31.8642 221.743 31.8158 220.91 31.704C220.083 31.5944 219.241 31.4171 218.383 31.1719C218.403 30.9647 218.438 30.7422 218.488 30.5045C218.54 30.2605 218.608 29.9909 218.691 29.6957C218.014 29.944 217.405 30.0888 216.864 30.1302C216.324 30.1715 215.82 30.1087 215.355 29.9418C214.184 29.5224 213.346 28.7244 212.84 27.5478C212.337 26.365 212.304 25.1021 212.743 23.7592C213.226 22.2802 214.122 21.2358 215.43 20.6261C216.738 20.0164 218.153 19.9839 219.673 20.5285C219.985 20.6404 220.284 20.775 220.568 20.9321C220.852 21.0892 221.121 21.272 221.374 21.4804C221.474 21.1979 221.565 20.9298 221.647 20.6761C221.738 20.4183 221.821 20.175 221.896 19.946C222.169 19.1106 222.267 18.5582 222.191 18.2889C222.115 18.0196 221.862 17.8081 221.433 17.6544C221.317 17.6126 221.227 17.5839 221.163 17.5681C221.102 17.5462 221.04 17.5273 220.977 17.5115L221.316 16.4719C222.145 16.6998 222.979 16.8947 223.816 17.0564C224.661 17.2141 225.514 17.3397 226.373 17.4333Z" fill="#FEBE44"/>
<path d="M240.228 35.188L236.294 33.2301C235.933 33.0502 235.588 32.8894 235.259 32.7477C234.931 32.6059 234.624 32.4861 234.34 32.3883C234.05 33.2323 234.034 33.9764 234.291 34.6207C234.555 35.2679 235.089 35.7916 235.893 36.1919C236.249 36.3688 236.673 36.5038 237.167 36.5969C237.663 36.684 238.254 36.7275 238.94 36.7273L238.934 38.0869C237.83 38.3004 236.84 38.3638 235.965 38.2771C235.096 38.1933 234.271 37.957 233.49 37.5683C232.126 36.8896 231.214 35.916 230.753 34.6477C230.299 33.3822 230.381 32.0677 230.999 30.7041C231.653 29.2634 232.664 28.3023 234.033 27.8208C235.408 27.3421 236.803 27.4552 238.22 28.1601C239.525 28.8098 240.363 29.7501 240.734 30.9809C241.11 32.2146 240.964 33.5665 240.297 35.0368L240.228 35.188ZM237.998 32.3558C238.248 31.6805 238.32 31.0953 238.216 30.6002C238.112 30.1051 237.851 29.7532 237.431 29.5443C236.988 29.3239 236.539 29.3441 236.085 29.605C235.639 29.8628 235.256 30.3298 234.935 31.0057C235.652 31.3625 236.255 31.648 236.743 31.8621C237.238 32.0792 237.656 32.2437 237.998 32.3558Z" fill="#FEBE44"/>
<path d="M254.209 37.2032C253.947 37.5766 253.689 37.9517 253.433 38.3286C253.186 38.7033 252.938 39.0854 252.69 39.4749C253.678 38.9237 254.421 38.6018 254.918 38.5092C255.424 38.4145 255.869 38.4893 256.254 38.7337C256.633 38.9746 256.864 39.3292 256.946 39.7974C257.033 40.2692 256.95 40.7248 256.695 41.1642C256.467 41.5586 256.182 41.8168 255.841 41.939C255.499 42.0612 255.177 42.0263 254.875 41.8343C254.705 41.7261 254.531 41.5002 254.354 41.1566C254.186 40.8109 254.025 40.5892 253.871 40.4915C253.712 40.3902 253.493 40.3398 253.215 40.3402C252.936 40.3406 252.601 40.3936 252.209 40.4991C252.07 40.7266 251.926 40.9625 251.777 41.2069C251.633 41.4547 251.445 41.7787 251.214 42.1786L250.641 43.1673C250.161 43.9954 249.95 44.5741 250.007 44.9034C250.07 45.2362 250.374 45.5754 250.918 45.921C251.017 45.9838 251.096 46.0345 251.157 46.0729C251.221 46.1056 251.277 46.1377 251.327 46.1691L250.788 47.0987C250.122 46.6137 249.52 46.1854 248.984 45.8138C248.453 45.4456 247.965 45.1202 247.52 44.8374C247.262 44.6733 246.887 44.4507 246.396 44.1695C245.905 43.8883 245.36 43.5887 244.763 43.2707L245.316 42.3158C245.343 42.3333 245.386 42.364 245.443 42.408C245.5 42.4521 245.537 42.4793 245.553 42.4898C246.295 42.9611 247.169 42.3292 248.174 40.5941C248.34 40.3068 248.472 40.086 248.569 39.9318L249.133 38.9958L249.505 38.3536C249.815 37.8184 249.95 37.4301 249.91 37.1885C249.878 36.9449 249.692 36.7148 249.351 36.4984C249.285 36.4565 249.209 36.4122 249.124 36.3654C249.047 36.3166 248.963 36.267 248.871 36.2168L249.341 35.2897C250.09 35.6576 250.868 36.0016 251.675 36.3216C252.491 36.6395 253.335 36.9333 254.209 37.2032Z" fill="#FEBE44"/>
<path d="M266.875 48.9575L267.362 49.3498C267.64 49.5746 268.099 49.9278 268.738 50.4095L268.829 50.483C269.273 50.5155 269.676 50.4561 270.038 50.3048C270.408 50.1523 270.707 49.9214 270.935 49.6119C271.32 49.0874 271.455 48.5481 271.337 47.994C271.224 47.4346 270.868 46.9138 270.27 46.4316C270.189 46.3662 269.998 46.2368 269.696 46.0435C269.508 45.9256 269.36 45.831 269.251 45.7597L268.267 47.0972L267.874 47.6322C267.758 47.7896 267.588 48.0157 267.363 48.3106C267.138 48.6055 266.975 48.8211 266.875 48.9575ZM263.338 53.8004C263.481 54.0239 263.642 54.2331 263.821 54.4281C264.006 54.6271 264.217 54.8227 264.455 55.0147C265.064 55.5052 265.672 55.7323 266.279 55.6961C266.891 55.6546 267.4 55.3585 267.804 54.8078C268.24 54.2151 268.379 53.5874 268.22 52.9248C268.067 52.2663 267.63 51.6469 266.911 51.0665C266.718 50.9112 266.413 50.678 265.996 50.3668C265.947 50.3352 265.912 50.3113 265.892 50.295C265.463 50.8772 265.017 51.4949 264.553 52.1482C264.441 52.3004 264.372 52.3948 264.345 52.4315L263.338 53.8004ZM258.356 50.8104C258.398 50.8525 258.442 50.8965 258.489 50.9426C258.544 50.9876 258.62 51.0489 258.717 51.1265C259.148 51.4739 259.533 51.5757 259.873 51.432C260.212 51.2883 260.801 50.6473 261.638 49.5091L261.898 49.1551L262.505 48.329L263.695 46.7441L265.564 44.2028C265.976 43.6416 266.174 43.1913 266.157 42.8519C266.15 42.5113 265.93 42.1673 265.499 41.8199C265.474 41.7995 265.427 41.7653 265.357 41.7175C265.287 41.6696 265.234 41.6313 265.199 41.6027L265.922 40.6193C266.501 41.1277 266.995 41.5594 267.404 41.9144C267.822 42.2681 268.19 42.5738 268.51 42.8312C269.006 43.2317 269.678 43.74 270.525 44.356C271.376 44.9668 271.961 45.4009 272.28 45.6583C273.521 46.6596 274.324 47.687 274.688 48.7405C275.06 49.7929 274.955 50.7151 274.373 51.5071C273.929 52.1103 273.33 52.4704 272.573 52.5876C271.817 52.7047 270.933 52.568 269.92 52.1776C270.868 53.1505 271.429 54.0835 271.604 54.9765C271.788 55.8684 271.581 56.7208 270.983 57.5338C270.273 58.4989 269.238 58.8965 267.878 58.7268C266.521 58.5518 265.042 57.8186 263.44 56.5272C263.177 56.3147 262.672 55.8701 261.926 55.1936C261.186 54.5211 260.559 53.9784 260.047 53.5657C259.916 53.4594 259.569 53.2008 259.008 52.7897C258.455 52.3775 258 52.0403 257.644 51.7781L258.356 50.8104Z" fill="#FEBE44"/>
<path d="M283.673 63.5751C283.239 63.1257 282.732 62.9709 282.153 63.111C281.578 63.2462 280.951 63.6737 280.272 64.3935C279.365 65.3547 278.799 66.2104 278.574 66.9604C278.354 67.7056 278.486 68.3287 278.97 68.8297C279.422 69.2978 279.94 69.4595 280.524 69.3148C281.112 69.1653 281.766 68.7094 282.485 67.947C283.361 67.0189 283.898 66.1847 284.095 65.4442C284.302 64.7038 284.161 64.0807 283.673 63.5751ZM284.927 62.4022C286.162 63.6803 286.82 65.0678 286.901 66.5646C286.991 68.0614 286.502 69.3757 285.434 70.5074C284.38 71.6249 283.126 72.1433 281.673 72.0625C280.229 71.9816 278.899 71.3115 277.682 70.0522C276.47 68.7975 275.807 67.4336 275.695 65.9605C275.592 64.4873 276.056 63.2038 277.088 62.11C278.179 60.9546 279.457 60.4055 280.923 60.4627C282.393 60.5151 283.728 61.1616 284.927 62.4022Z" fill="#FEBE44"/>
<path d="M295.15 87.1043L294.695 88.1129C293.744 87.7401 293.001 87.3969 292.465 87.0832C291.923 86.7737 291.536 86.4666 291.302 86.162C290.957 85.7128 290.792 85.2902 290.808 84.8943C290.823 84.5077 291.013 84.1473 291.38 83.8131C290.495 83.5468 289.812 83.2882 289.333 83.0375C288.853 82.7867 288.49 82.5012 288.244 82.1811C287.776 81.5719 287.597 80.8637 287.708 80.0567C287.822 79.2549 288.19 78.5918 288.812 78.0676C289.813 77.2245 291.494 77.7854 293.856 79.75C294.35 80.1586 294.739 80.4776 295.022 80.7071C295.175 80.5864 295.339 80.4573 295.512 80.3199C295.694 80.1834 295.8 80.1026 295.83 80.0774C296.198 79.7671 296.402 79.4507 296.442 79.1284C296.486 78.8018 296.366 78.4527 296.08 78.0809C295.795 77.7092 295.504 77.4694 295.208 77.3616C294.916 77.259 294.66 77.2999 294.441 77.4845L294.284 77.6166C294.065 77.8011 293.818 77.8311 293.541 77.7065C293.265 77.5819 292.957 77.2976 292.616 76.8536C292.39 76.5593 292.271 76.2932 292.261 76.0554C292.256 75.8134 292.36 75.6022 292.574 75.4219C292.738 75.2835 292.969 75.1996 293.266 75.1703C293.568 75.1461 293.92 75.1771 294.322 75.2633C295.033 75.4209 295.732 75.7213 296.417 76.1648C297.107 76.604 297.68 77.1205 298.136 77.7143C298.913 78.7263 299.27 79.6714 299.206 80.5497C299.147 81.4332 298.664 82.2566 297.758 83.02C297.549 83.1961 297.097 83.5425 296.403 84.059C295.709 84.5755 295.136 85.0246 294.683 85.4063C294.429 85.6202 294.271 85.8256 294.209 86.0224C294.15 86.2244 294.189 86.4131 294.324 86.5887C294.383 86.6661 294.474 86.7423 294.598 86.8172C294.721 86.8921 294.905 86.9877 295.15 87.1043ZM293.993 81.5612C293.871 81.477 293.692 81.3511 293.457 81.1836C292.285 80.342 291.476 80.1099 291.027 80.4874C290.778 80.6971 290.632 80.9652 290.587 81.2918C290.552 81.6193 290.633 81.9121 290.832 82.1703C290.943 82.3148 291.107 82.4486 291.324 82.5716C291.546 82.6997 291.868 82.8364 292.291 82.9816L293.993 81.5612Z" fill="#FEBE44"/>
<path d="M308.706 93.0362C308.309 93.2591 307.913 93.4849 307.519 93.7134C307.133 93.9438 306.745 94.1806 306.352 94.4239C307.481 94.3564 308.289 94.389 308.777 94.5215C309.274 94.6559 309.642 94.9167 309.882 95.3041C310.119 95.6859 310.172 96.1057 310.043 96.5634C309.917 97.0267 309.644 97.401 309.224 97.6865C308.847 97.9427 308.478 98.0517 308.118 98.0135C307.757 97.9753 307.483 97.8041 307.294 97.4997C307.188 97.3282 307.13 97.0491 307.12 96.6627C307.119 96.2781 307.07 96.0083 306.974 95.8533C306.874 95.6929 306.699 95.5523 306.449 95.4318C306.198 95.3112 305.873 95.2133 305.475 95.1382C305.25 95.2827 305.018 95.4327 304.778 95.5882C304.541 95.7493 304.231 95.9597 303.849 96.2195L302.904 96.8619C302.113 97.3998 301.671 97.8297 301.58 98.1514C301.492 98.4786 301.617 98.9161 301.957 99.464C302.019 99.5636 302.069 99.6438 302.106 99.7047C302.149 99.7619 302.186 99.8154 302.217 99.8652L301.329 100.469C300.94 99.7425 300.584 99.0953 300.263 98.5273C299.945 97.9648 299.647 97.4594 299.369 97.0112C299.208 96.7511 298.968 96.3877 298.648 95.9209C298.328 95.4541 297.968 94.9476 297.568 94.4013L298.481 93.781C298.498 93.8087 298.523 93.8548 298.555 93.9193C298.587 93.9838 298.609 94.0244 298.619 94.041C299.082 94.788 300.143 94.598 301.801 93.4707C302.076 93.2841 302.29 93.1423 302.444 93.0453L303.359 92.4471L303.973 92.0299C304.484 91.6822 304.774 91.3907 304.843 91.1554C304.92 90.922 304.852 90.6338 304.64 90.2907C304.599 90.2243 304.55 90.1514 304.493 90.072C304.445 89.9946 304.391 89.9134 304.33 89.8285L305.156 89.1968C305.67 89.8539 306.221 90.5019 306.808 91.1408C307.404 91.7817 308.037 92.4134 308.706 93.0362Z" fill="#FEBE44"/>
<path d="M315.712 110.946C315.728 110.65 315.713 110.381 315.668 110.14C315.628 109.896 315.557 109.668 315.455 109.457C315.145 108.819 314.683 108.45 314.07 108.349C313.462 108.245 312.745 108.414 311.918 108.855C310.964 109.364 310.29 109.948 309.895 110.608C309.505 111.266 309.454 111.89 309.742 112.481C309.827 112.657 309.963 112.832 310.149 113.006C310.334 113.179 310.578 113.352 310.878 113.524C311.3 113.306 311.701 113.096 312.08 112.894C312.468 112.694 312.84 112.5 313.196 112.31C313.638 112.074 314.059 111.846 314.458 111.625C314.861 111.411 315.278 111.184 315.712 110.946ZM323.747 110.665C322.138 111.464 320.529 112.274 318.917 113.096C317.312 113.916 315.685 114.765 314.036 115.644L313.123 116.131C312.445 116.493 312.031 116.78 311.881 116.992C311.74 117.208 311.739 117.459 311.878 117.746C311.918 117.828 311.981 117.92 312.067 118.021C312.158 118.12 312.267 118.224 312.392 118.334L311.603 119.01C311.003 118.445 310.445 117.832 309.928 117.171C309.414 116.516 308.936 115.801 308.495 115.027C308.653 114.891 308.832 114.754 309.034 114.618C309.24 114.478 309.476 114.33 309.74 114.174C309.085 113.883 308.55 113.563 308.135 113.217C307.721 112.87 307.405 112.474 307.189 112.029C306.645 110.911 306.602 109.75 307.059 108.548C307.522 107.343 308.377 106.408 309.623 105.743C310.996 105.011 312.361 104.88 313.719 105.351C315.076 105.822 316.108 106.783 316.814 108.235C316.959 108.533 317.078 108.838 317.172 109.15C317.266 109.461 317.33 109.781 317.367 110.108C317.634 109.973 317.885 109.842 318.12 109.717C318.365 109.594 318.593 109.476 318.806 109.363C319.581 108.949 320.035 108.619 320.168 108.371C320.301 108.123 320.267 107.794 320.068 107.384C320.014 107.273 319.97 107.19 319.936 107.134C319.907 107.076 319.876 107.019 319.842 106.963L320.807 106.449C321.24 107.191 321.699 107.912 322.184 108.612C322.678 109.314 323.199 109.999 323.747 110.665Z" fill="#FEBE44"/>
</svg>
